<svg viewBox="0 0 1792 1792">
	<path
		d="m 702.28956,905.23624 -540.072,540.07206 c -52.128,52.152 -52.128,136.68 0,188.832 26.064,26.0639 60.24,39.0959 94.416,39.0959 v 0 c 34.176,0 68.352,-13.032 94.416,-39.0959 l 540.072,-540.0721 540.04794,540.048 c 26.064,26.064 60.24,39.096 94.416,39.096 v 0 c 34.176,0 68.352,-13.032 94.416,-39.1199 52.152,-52.1521 52.152,-136.6801 0,-188.8321 l -540.048,-540.04796 540.048,-540.048 c 52.152,-52.152 52.152,-136.704 0,-188.832 -52.152,-52.128 -136.704,-52.152 -188.832,0 l -540.04794,540.048 -540.072,-540.072 c -52.152,-52.152 -136.704,-52.128 -188.832,0 -52.128,52.128 -52.128,136.704 0,188.832 l 540.072,540.072 z"></path>
</svg>
