<svg viewBox="0 0 1792 1792">
	<path
		d="m 733.76105,905.23349 -450.06,450.06001 c -43.44,43.46 -43.44,113.9 0,157.36 21.72,21.72 50.2,32.58 78.68,32.58 v 0 c 28.48,0 56.96,-10.86 78.68,-32.58 l 450.06,-450.06 450.03995,450.04 c 21.72,21.72 50.2,32.58 78.68,32.58 v 0 c 28.48,0 56.96,-10.86 78.68,-32.6 43.46,-43.46 43.46,-113.9 0,-157.36 l -450.04,-450.04001 450.04,-450.04 c 43.46,-43.46 43.46,-113.92 0,-157.36 -43.46,-43.44 -113.92,-43.46 -157.36,0 l -450.03995,450.04 -450.06,-450.06 c -43.46,-43.46 -113.92,-43.44 -157.36,0 -43.44,43.44 -43.44,113.92 0,157.36 l 450.06,450.06 z"></path>
</svg>
